<?xml version="1.0" encoding="UTF-8"?>
<svg version="1.1" xmlns="http://www.w3.org/2000/svg" width="28" height="33">
<path d="M0 0 C0.66 0 1.32 0 2 0 C3.32 2.31 4.64 4.62 6 7 C6.94875 6.505 7.8975 6.01 8.875 5.5 C12 4 12 4 14 4 C14.624 15.68266667 14.624 15.68266667 12.3125 20.5625 C10.01937621 22.97957642 7.70039807 25.04971251 5 27 C5.33 28.65 5.66 30.3 6 32 C0.72919887 33.31770028 -2.44243204 33.07241757 -7.19921875 30.34765625 C-10.24630734 28.06729711 -11.97839343 25.60181804 -13 22 C-13.29877876 18.30510269 -13.24064689 14.69660368 -13 11 C-10.69 11.66 -8.38 12.32 -6 13 C-5.938125 12.34 -5.87625 11.68 -5.8125 11 C-4.69621505 6.8783325 -2.66238434 3.34249498 0 0 Z M8 14 C8 15.65 8 17.3 8 19 C8.33 19 8.66 19 9 19 C9 17.35 9 15.7 9 14 C8.67 14 8.34 14 8 14 Z M2 19 C3 21 3 21 3 21 Z M3 21 C4 24 4 24 4 24 Z " fill="#207131" transform="translate(13,0)"/>
<path d="M0 0 C12.31503948 3.6664741 12.31503948 3.6664741 16 10 C17.2247835 13.62435934 18.18234722 17.26405801 19 21 C13.72919887 22.31770028 10.55756796 22.07241757 5.80078125 19.34765625 C2.75369266 17.06729711 1.02160657 14.60181804 0 11 C-0.29877876 7.30510269 -0.24064689 3.69660368 0 0 Z " fill="#65A930" transform="translate(0,11)"/>
<path d="M0 0 C0.68824494 12.88547468 0.68824494 12.88547468 -1.8125 16.8125 C-2.534375 17.534375 -3.25625 18.25625 -4 19 C-4.99 19 -5.98 19 -7 19 C-6.87431641 18.14728516 -6.87431641 18.14728516 -6.74609375 17.27734375 C-6.08089803 12.23364455 -6.0431163 7.99705931 -7 3 C-2.25 0 -2.25 0 0 0 Z " fill="#65A930" transform="translate(27,4)"/>
</svg>
