<svg width="140" height="29" fill="none" xmlns="http://www.w3.org/2000/svg"><g clip-path="url(#a)"><path d="m9.055 7.842-1.163 4.28 6.657-4.305-4.354 16.244 4.422.003L21.048.072" fill="#3395FF"/><path d="M1.89 17.236.06 24.064h9.06l3.709-13.891-10.94 7.063Zm31.48-6.012c-.222.823-.649 1.428-1.285 1.814-.635.385-1.526.579-2.677.579h-3.655l1.283-4.785h3.655c1.15 0 1.939.192 2.367.583.428.392.532.99.312 1.817v-.008Zm3.784-.095c.465-1.728.273-3.058-.578-3.988-.849-.923-2.339-1.388-4.465-1.388h-8.157l-4.91 18.32h3.962l1.98-7.384h2.598c.584 0 1.043.096 1.378.28.336.192.533.524.594 1.004l.707 6.1h4.246l-.688-5.686c-.14-1.27-.722-2.016-1.743-2.237 1.302-.377 2.393-1.005 3.271-1.876a6.838 6.838 0 0 0 1.805-3.138v-.007Zm9.633 6.387c-.332 1.24-.842 2.178-1.53 2.835-.69.657-1.514.982-2.476.982-.979 0-1.643-.317-1.993-.96-.352-.642-.364-1.573-.037-2.791.326-1.218.847-2.17 1.563-2.858.716-.686 1.553-1.03 2.515-1.03.96 0 1.617.333 1.95.992.339.662.346 1.61.014 2.843l-.006-.013Zm1.737-6.483-.496 1.853c-.215-.665-.63-1.196-1.245-1.595-.616-.391-1.377-.59-2.287-.59-1.114 0-2.185.287-3.212.863-1.026.576-1.927 1.388-2.695 2.437-.768 1.048-1.329 2.237-1.69 3.574-.355 1.344-.429 2.518-.215 3.537.222 1.026.687 1.809 1.403 2.355.724.554 1.647.827 2.777.827a6.085 6.085 0 0 0 2.599-.569 6.063 6.063 0 0 0 2.097-1.565l-.517 1.932h3.832l3.5-13.053h-3.84l-.011-.006Zm17.622 0H55l-.779 2.909h6.485l-8.573 7.406-.733 2.732h11.505l.779-2.91h-6.949l8.704-7.516.706-2.621Zm9.81 6.46c-.346 1.285-.857 2.251-1.533 2.88-.676.635-1.494.953-2.454.953-2.009 0-2.669-1.278-1.984-3.833.34-1.27.854-2.224 1.54-2.867.687-.646 1.52-.968 2.498-.968.96 0 1.608.32 1.942.964.334.642.33 1.6-.01 2.87v.001Zm2.242-5.97c-.882-.549-2.008-.824-3.381-.824-1.39 0-2.678.274-3.862.82a8.35 8.35 0 0 0-3.028 2.367c-.834 1.027-1.434 2.23-1.803 3.604-.362 1.368-.406 2.57-.125 3.598.28 1.026.87 1.816 1.757 2.363.894.55 2.03.825 3.426.825 1.374 0 2.651-.277 3.825-.826a8.434 8.434 0 0 0 3.013-2.37c.834-1.03 1.432-2.23 1.801-3.603.37-1.374.414-2.573.133-3.604-.28-1.026-.864-1.816-1.742-2.366l-.014.017ZM91.88 14.52l.983-3.552c-.333-.17-.768-.258-1.315-.258-.879 0-1.72.217-2.532.657-.7.374-1.293.901-1.795 1.561l.51-1.912-1.113.004h-2.732l-3.522 13.048h3.886l1.827-6.82c.266-.993.745-1.773 1.435-2.327.687-.556 1.543-.834 2.577-.834.635 0 1.226.145 1.787.435l.004-.002Zm10.814 3.037c-.333 1.219-.835 2.149-1.522 2.791-.686.646-1.513.968-2.473.968s-1.617-.325-1.964-.975c-.355-.654-.362-1.595-.03-2.832.332-1.237.842-2.186 1.543-2.843a3.5 3.5 0 0 1 2.489-.993c.945 0 1.58.34 1.92 1.026.339.687.347 1.64.02 2.857l.017.001Zm2.701-6.011c-.72-.576-1.64-.864-2.755-.864-.977 0-1.908.222-2.79.669a5.822 5.822 0 0 0-2.15 1.827l.014-.089.652-2.075H94.57l-.967 3.611-.03.126-3.987 14.874h3.892l2.008-7.487c.2.665.606 1.188 1.226 1.566.62.377 1.386.564 2.296.564a6.76 6.76 0 0 0 3.231-.82c1.026-.548 1.912-1.336 2.665-2.355.753-1.02 1.312-2.2 1.669-3.537.362-1.339.436-2.533.229-3.578-.21-1.046-.676-1.856-1.396-2.43l-.011-.002Zm12.907 5.958c-.332 1.233-.841 2.178-1.528 2.828-.687.654-1.514.98-2.474.98-.982 0-1.646-.318-1.993-.96-.355-.642-.362-1.573-.037-2.791s.843-2.171 1.559-2.858c.717-.686 1.555-1.029 2.516-1.029.96 0 1.61.332 1.949.99.34.659.342 1.606.011 2.842l-.003-.002Zm1.736-6.487-.497 1.854c-.214-.669-.628-1.2-1.241-1.595-.62-.395-1.381-.591-2.289-.591-1.115 0-2.191.288-3.219.864-1.027.576-1.927 1.384-2.695 2.43-.768 1.045-1.329 2.237-1.691 3.573-.358 1.342-.429 2.518-.214 3.541.216 1.02.682 1.806 1.403 2.356.719.546 1.646.822 2.776.822a6.14 6.14 0 0 0 2.599-.568 6.072 6.072 0 0 0 2.092-1.568l-.517 1.933h3.832l3.499-13.047h-3.832l-.006-.004Zm19.927.005.002-.004h-2.355c-.076 0-.142.004-.211.005h-1.222l-.628.871-.155.207-.066.104-4.966 6.917-1.026-8.1h-4.067l2.06 12.309-4.549 6.298h4.054l1.1-1.56c.031-.046.059-.084.096-.133l1.285-1.824.037-.051 5.754-8.16 4.852-6.867.007-.004h-.002v-.008Z" fill="#072654"/></g><defs><clipPath id="a"><path fill="#fff" d="M0 0h140v29H0z"/></clipPath></defs></svg>